<svg version="1.1" id="Layer_1" xmlns="http://www.w3.org/2000/svg" xmlns:xlink="http://www.w3.org/1999/xlink" x="0px" y="0px"
	 width="100%" viewBox="0 0 321 315" enable-background="new 0 0 321 315" xml:space="preserve">
<path fill="#0A8F82" opacity="1.000000" stroke="none" 
	d="
M158.000000,316.000000 
	C157.555557,316.000000 157.111099,316.000000 156.226059,315.889130 
	C155.474228,315.632538 155.212402,315.706451 155.000000,316.000000 
	C154.555557,316.000000 154.111099,316.000000 153.051926,315.775818 
	C151.256180,315.385040 150.075165,315.218414 148.444336,315.030457 
	C140.585922,314.007812 133.103165,313.380890 125.783516,311.930664 
	C108.194206,308.445862 92.008812,301.423065 77.262421,291.229919 
	C71.106094,286.974487 65.219498,282.328796 59.088085,277.543182 
	C56.607235,274.891571 54.248554,272.557343 51.807854,269.961426 
	C51.436165,269.492859 51.146496,269.285950 50.803970,268.739014 
	C48.071678,265.378479 45.156250,262.533173 42.758560,259.303528 
	C36.428410,250.776962 29.394878,242.588654 24.357756,233.331696 
	C17.750219,221.188766 11.639363,208.538651 9.786299,194.522003 
	C7.996816,180.986313 6.372499,167.421173 5.100136,153.829239 
	C4.707461,149.634506 5.707526,145.309387 6.226598,140.688873 
	C7.509551,133.897385 8.635801,127.461021 9.859936,120.637825 
	C10.584274,118.040428 10.999173,115.742271 11.872210,113.633797 
	C16.789886,101.757095 20.878786,89.403618 27.091398,78.237022 
	C32.510269,68.497116 40.365471,60.112686 47.432819,50.951492 
	C49.230984,49.530209 50.740685,48.286968 52.250069,47.043343 
	C61.577145,39.358463 70.347847,30.822329 80.402618,24.250900 
	C88.840240,18.736380 98.595543,15.042330 108.100243,11.414092 
	C116.715851,8.125252 125.730774,5.824300 134.668228,3.460597 
	C139.335922,2.226125 144.215897,1.794331 149.000000,1.000000 
	C156.354248,1.000000 163.708496,1.000000 171.721130,1.386534 
	C176.925812,2.239409 181.472107,2.705750 186.293991,3.401502 
	C190.935684,4.648149 195.301804,5.665386 200.011566,6.452563 
	C200.894852,6.284420 201.434509,6.346336 202.128113,6.704832 
	C203.932373,7.695648 205.543579,8.509880 207.239914,9.062976 
	C213.939621,11.247420 220.666046,13.349957 227.241364,15.513123 
	C227.100159,15.543367 227.385651,15.463127 227.495453,15.802423 
	C229.808823,17.052341 232.012375,17.962965 234.561859,18.926010 
	C242.668961,23.932697 250.946396,28.250225 258.053009,34.011871 
	C265.901245,40.374783 273.068054,47.712502 279.803833,55.273956 
	C286.005005,62.235294 291.757751,69.729004 296.746735,77.597702 
	C301.203094,84.626335 304.346466,92.487434 308.112488,100.368568 
	C310.034851,106.257698 312.334595,111.657204 313.702057,117.283302 
	C316.256012,127.790672 318.850281,138.349915 318.171783,149.336151 
	C318.157867,149.561752 318.573761,149.813919 318.837860,150.507904 
	C318.965759,154.634674 319.044922,158.307220 319.047699,162.315414 
	C319.016449,163.105331 319.061584,163.559586 319.026062,164.436188 
	C318.644287,169.236786 318.343201,173.615036 317.867889,178.351746 
	C315.890259,186.345474 314.163635,194.000015 312.256531,201.609344 
	C310.963379,206.769135 309.416718,211.865387 307.991699,216.994080 
	C308.000000,216.998108 307.982819,216.984039 307.679779,217.160645 
	C305.254333,222.226425 303.131897,227.115585 300.718628,232.203766 
	C297.201447,237.921249 294.517609,243.857224 290.650085,248.882141 
	C277.550140,265.902344 262.958893,281.156616 244.317200,292.695404 
	C222.581024,306.149689 199.409698,313.557220 173.636108,315.037354 
	C168.108887,315.350220 163.054443,315.675110 158.000000,316.000000 
M239.679947,285.972839 
	C240.002686,285.674225 240.325424,285.375610 241.101120,285.076172 
	C241.427277,284.795013 241.753433,284.513885 242.684998,284.035919 
	C243.503876,283.388916 244.322754,282.741913 245.054733,282.067169 
	C245.054733,282.067169 245.032288,282.155609 245.595825,282.011719 
	C245.848480,281.731140 246.101151,281.450592 246.219177,281.200043 
	C246.219177,281.200043 246.266922,281.329437 246.917786,281.099548 
	C249.017044,279.451904 251.116302,277.804260 253.134369,276.131012 
	C253.134369,276.131012 253.154526,276.213745 253.773895,275.978821 
	C255.098083,274.964630 256.422272,273.950439 258.163452,272.388275 
	C264.065674,266.751373 270.825775,261.759705 275.666229,255.324203 
	C282.686340,245.990723 289.289886,236.074219 294.277496,225.555878 
	C299.498291,214.545715 302.598358,202.529953 306.896606,190.342178 
	C306.917969,189.900208 306.939331,189.458252 307.229980,188.430954 
	C307.270172,188.004379 307.310364,187.577820 307.821014,186.499863 
	C309.331177,173.059296 312.926697,159.717850 309.840851,145.224457 
	C307.470673,133.390869 305.100494,121.557297 302.834076,109.122490 
	C302.510223,108.514160 302.186401,107.905830 301.413361,106.828514 
	C301.264191,106.205551 301.114990,105.582588 301.372711,104.498627 
	C300.164703,102.028221 298.956726,99.557816 297.859100,97.104439 
	C297.859100,97.104439 297.831085,97.212547 297.877777,96.502563 
	C297.374939,95.853546 296.872101,95.204529 296.275360,94.474190 
	C296.275360,94.474190 296.310089,94.354919 296.497894,93.740875 
	C296.144409,93.293961 295.790924,92.847038 295.685333,92.350723 
	C295.685333,92.350723 295.448608,92.386520 295.571838,91.748001 
	C295.181641,91.316513 294.791412,90.885033 294.519623,90.406731 
	C294.519623,90.406731 294.393890,90.386650 294.535919,89.770020 
	C294.153656,89.376350 293.771423,88.982689 293.264130,88.507965 
	C293.264130,88.507965 293.293274,88.361839 293.543182,87.699867 
	C292.934387,86.839722 292.325623,85.979576 291.826630,85.128059 
	C291.826630,85.128059 291.804352,85.235916 291.823761,84.548538 
	C290.973938,83.376945 290.124115,82.205353 288.839294,80.476753 
	C284.068909,73.709534 280.052795,66.207832 274.348663,60.349834 
	C266.105469,51.884247 256.869293,44.323318 247.636810,36.898640 
	C235.641769,27.252344 221.590363,20.951677 207.129333,16.479471 
	C189.946686,11.165572 172.045425,9.153102 153.882111,9.929076 
	C138.847992,10.571365 124.253761,13.722630 110.234398,18.489758 
	C100.474121,21.808628 91.306587,27.410620 82.579689,33.078785 
	C73.600128,38.911060 64.902405,45.451500 57.117630,52.782486 
	C46.404621,62.871010 38.388512,75.235443 31.472916,88.229980 
	C19.183229,111.322571 12.802080,135.825989 14.040682,162.114075 
	C14.800697,178.244629 17.258984,194.058350 22.908550,209.274521 
	C24.436850,213.390717 25.240461,217.922394 27.462494,221.608917 
	C36.468769,236.551086 44.897148,251.632004 57.776711,264.227905 
	C67.195770,273.439484 77.590271,280.727997 88.277046,288.803802 
	C88.982918,289.059814 89.688782,289.315796 90.260551,289.618256 
	C90.260551,289.618256 90.242874,289.477448 90.533165,290.078491 
	C91.129158,290.291107 91.725151,290.503693 92.160141,290.748627 
	C92.160141,290.748627 92.146645,290.584961 92.470634,291.160919 
	C93.066154,291.376465 93.661682,291.592041 94.100067,291.850677 
	C94.100067,291.850677 94.068138,291.690887 94.437485,292.225006 
	C95.028114,292.433411 95.618744,292.641815 96.073891,292.901428 
	C96.073891,292.901428 96.029999,292.763428 96.435242,293.269958 
	C97.039040,293.450989 97.642838,293.632019 98.128784,293.835510 
	C98.128784,293.835510 98.119514,293.715912 98.368813,294.381744 
	C102.920433,296.217285 107.472054,298.052826 112.768761,299.865509 
	C122.857674,302.215485 132.946594,304.565460 143.826370,307.197388 
	C159.300125,309.355713 174.721939,308.730988 189.978073,305.645477 
	C199.442932,303.731201 209.397964,303.121552 217.855026,297.243164 
	C217.855026,297.243164 217.993713,297.042297 218.701706,296.971313 
	C220.604446,296.014984 222.507187,295.058655 224.742935,294.111603 
	C224.742935,294.111603 224.973969,293.871613 225.640701,293.809967 
	C226.595200,293.254822 227.549683,292.699677 228.823303,292.128540 
	C228.823303,292.128540 229.028046,291.883240 229.577072,291.813782 
	C229.858307,291.586365 230.139542,291.358917 230.779358,291.095276 
	C230.779358,291.095276 231.020172,290.827087 231.464493,290.778839 
	C231.773087,290.680023 231.979065,290.477051 232.654892,290.089294 
	C233.116516,289.767822 233.578140,289.446381 234.729462,289.011017 
	C235.648880,288.393219 236.568298,287.775452 237.819763,287.102814 
	C237.819763,287.102814 238.021423,286.833405 238.498947,286.750061 
	C238.809921,286.604492 239.022949,286.369934 239.042053,286.026581 
	C239.042053,286.026581 239.025070,286.123138 239.679947,285.972839 
z"/>
<path fill="#FDFEFE" opacity="1.000000" stroke="none" 
	d="
M308.069214,99.981194 
	C304.346466,92.487434 301.203094,84.626335 296.746735,77.597702 
	C291.757751,69.729004 286.005005,62.235294 279.803833,55.273956 
	C273.068054,47.712502 265.901245,40.374783 258.053009,34.011871 
	C250.946396,28.250225 242.668961,23.932697 234.351135,18.654020 
	C231.658218,17.374113 229.521927,16.418619 227.385651,15.463125 
	C227.385651,15.463127 227.100159,15.543367 226.982086,15.287401 
	C218.567398,12.157042 210.270767,9.282648 201.974152,6.408253 
	C201.434509,6.346336 200.894852,6.284420 199.865204,6.090311 
	C194.922928,5.029441 190.470673,4.100766 186.018417,3.172091 
	C181.472107,2.705750 176.925812,2.239409 172.189758,1.386534 
	C221.925766,1.000000 271.851532,1.000000 322.000000,1.000000 
	C322.000000,49.020664 322.000000,97.041672 321.731384,145.228302 
	C320.974182,141.637894 320.835632,137.795181 319.931030,134.142166 
	C317.272430,123.406151 314.373749,112.727333 311.364349,102.084000 
	C311.071442,101.048042 311.134521,97.506729 308.069214,99.981194 
z"/>
<path fill="#FEFFFE" opacity="1.000000" stroke="none" 
	d="
M174.108887,315.049377 
	C199.409698,313.557220 222.581024,306.149689 244.317200,292.695404 
	C262.958893,281.156616 277.550140,265.902344 290.650085,248.882141 
	C294.517609,243.857224 297.201447,237.921249 300.920990,232.371521 
	C301.668396,232.547440 302.072998,232.982925 302.155029,232.928879 
	C305.479614,230.737991 309.124512,220.691879 307.982819,216.984039 
	C307.982819,216.984039 308.000000,216.998108 308.362091,216.969727 
	C309.750732,216.011475 311.338837,215.264801 311.711761,214.121689 
	C313.964874,207.214890 316.257538,200.292191 317.920471,193.229645 
	C319.644928,185.905609 320.669403,178.416763 322.000000,171.000000 
	C322.000000,219.261078 322.000000,267.522156 322.000000,316.000000 
	C272.979309,316.000000 223.958313,316.000000 174.470673,315.759460 
	C174.004028,315.518921 174.108887,315.049377 174.108887,315.049377 
z"/>
<path fill="#FEFFFE" opacity="1.000000" stroke="none" 
	d="
M148.531342,1.000000 
	C144.215897,1.794331 139.335922,2.226125 134.668228,3.460597 
	C125.730774,5.824300 116.715851,8.125252 108.100243,11.414092 
	C98.595543,15.042330 88.840240,18.736380 80.402618,24.250900 
	C70.347847,30.822329 61.577145,39.358463 52.250069,47.043343 
	C50.740685,48.286968 49.230984,49.530209 47.155052,50.824612 
	C45.348858,51.467411 43.825844,51.781197 42.921505,52.702362 
	C40.027679,55.650009 37.188641,58.685661 34.638912,61.931244 
	C20.088083,80.453178 9.999408,101.146217 4.980002,124.199188 
	C3.409314,131.412994 2.313295,138.730148 1.000000,146.000000 
	C1.000000,97.738922 1.000000,49.477840 1.000000,1.000000 
	C50.020683,1.000000 99.041679,1.000000 148.531342,1.000000 
z"/>
<path fill="#FEFFFF" opacity="1.000000" stroke="none" 
	d="
M59.210262,277.860535 
	C65.219498,282.328796 71.106094,286.974487 77.262421,291.229919 
	C92.008812,301.423065 108.194206,308.445862 125.783516,311.930664 
	C133.103165,313.380890 140.585922,314.007812 148.490540,315.265228 
	C148.986542,315.521362 149.000000,316.000000 149.000000,316.000000 
	C99.740417,316.000000 50.480827,316.000000 1.000000,316.000000 
	C1.000000,267.979340 1.000000,219.958328 1.262569,171.775696 
	C3.123482,188.706741 7.149875,205.187790 14.129181,220.894669 
	C22.010433,238.631363 32.352585,254.708282 46.647278,268.008728 
	C47.577290,268.874054 49.432163,268.745361 50.856827,269.079041 
	C51.146496,269.285950 51.436165,269.492859 51.713150,270.252136 
	C52.200935,275.288086 54.756660,277.584259 59.210262,277.860535 
z"/>
<path fill="#C6E9DB" opacity="1.000000" stroke="none" 
	d="
M50.803970,268.739014 
	C49.432163,268.745361 47.577290,268.874054 46.647278,268.008728 
	C32.352585,254.708282 22.010433,238.631363 14.129181,220.894669 
	C7.149875,205.187790 3.123482,188.706741 1.262569,171.307037 
	C1.000000,162.979095 1.000000,154.958191 1.000000,146.468643 
	C2.313295,138.730148 3.409314,131.412994 4.980002,124.199188 
	C9.999408,101.146217 20.088083,80.453178 34.638912,61.931244 
	C37.188641,58.685661 40.027679,55.650009 42.921505,52.702362 
	C43.825844,51.781197 45.348858,51.467411 46.866440,51.002480 
	C40.365471,60.112686 32.510269,68.497116 27.091398,78.237022 
	C20.878786,89.403618 16.789886,101.757095 11.872210,113.633797 
	C10.999173,115.742271 10.584274,118.040428 9.543254,120.776962 
	C5.644060,127.501328 5.873396,134.275192 6.069896,141.043976 
	C5.707526,145.309387 4.707461,149.634506 5.100136,153.829239 
	C6.372499,167.421173 7.996816,180.986313 9.786299,194.522003 
	C11.639363,208.538651 17.750219,221.188766 24.357756,233.331696 
	C29.394878,242.588654 36.428410,250.776962 42.758560,259.303528 
	C45.156250,262.533173 48.071678,265.378479 50.803970,268.739014 
z"/>
<path fill="#C4E6D6" opacity="1.000000" stroke="none" 
	d="
M322.000000,170.531357 
	C320.669403,178.416763 319.644928,185.905609 317.920471,193.229645 
	C316.257538,200.292191 313.964874,207.214890 311.711761,214.121689 
	C311.338837,215.264801 309.750732,216.011475 308.353790,216.965698 
	C309.416718,211.865387 310.963379,206.769135 312.256531,201.609344 
	C314.163635,194.000015 315.890259,186.345474 318.224213,178.200745 
	C318.872070,173.132156 318.989410,168.572998 319.106750,164.013855 
	C319.061584,163.559586 319.016449,163.105331 319.392975,162.164459 
	C321.642883,157.611679 322.001587,153.675156 318.789124,150.053680 
	C318.573761,149.813919 318.157867,149.561752 318.171783,149.336151 
	C318.850281,138.349915 316.256012,127.790672 313.702057,117.283302 
	C312.334595,111.657204 310.034851,106.257698 308.112488,100.368568 
	C311.134521,97.506729 311.071442,101.048042 311.364349,102.084000 
	C314.373749,112.727333 317.272430,123.406151 319.931030,134.142166 
	C320.835632,137.795181 320.974182,141.637894 321.731384,145.696960 
	C322.000000,154.020905 322.000000,162.041809 322.000000,170.531357 
z"/>
<path fill="#128879" opacity="1.000000" stroke="none" 
	d="
M173.636108,315.037354 
	C174.108887,315.049377 174.004028,315.518921 174.002014,315.759460 
	C168.977905,316.000000 163.955811,316.000000 158.466858,316.000000 
	C163.054443,315.675110 168.108887,315.350220 173.636108,315.037354 
z"/>
<path fill="#128879" opacity="1.000000" stroke="none" 
	d="
M149.399994,316.000000 
	C149.000000,316.000000 148.986542,315.521362 148.940353,315.286591 
	C150.075165,315.218414 151.256180,315.385040 152.718597,315.775818 
	C151.933334,316.000000 150.866653,316.000000 149.399994,316.000000 
z"/>
<path fill="#128879" opacity="1.000000" stroke="none" 
	d="
M155.250000,316.000000 
	C155.212402,315.706451 155.474228,315.632538 155.892731,315.889130 
	C156.000000,316.000000 155.500000,316.000000 155.250000,316.000000 
z"/>
<path fill="#EFF4EB" opacity="1.000000" stroke="none" 
	d="
M300.965820,104.959625 
	C301.114990,105.582588 301.264191,106.205551 301.647308,107.396324 
	C302.164276,108.550659 302.447296,109.137192 302.730347,109.723724 
	C305.100494,121.557297 307.470673,133.390869 309.607513,146.001328 
	C308.912048,156.047195 308.450989,165.316238 307.987274,174.585144 
	C307.777710,178.773987 307.562988,182.962555 307.350586,187.151245 
	C307.310364,187.577820 307.270172,188.004379 306.923767,188.870209 
	C306.620148,189.857559 306.622772,190.405640 306.625366,190.953735 
	C302.598358,202.529953 299.498291,214.545715 294.277496,225.555878 
	C289.289886,236.074219 282.686340,245.990723 275.666229,255.324203 
	C270.825775,261.759705 264.065674,266.751373 257.684204,272.564606 
	C255.854843,273.898529 254.504684,275.056152 253.154526,276.213745 
	C253.154526,276.213745 253.134369,276.131012 252.795883,276.122070 
	C250.393906,277.851929 248.330414,279.590698 246.266922,281.329437 
	C246.266922,281.329437 246.219177,281.200043 246.024826,281.291199 
	C245.564407,281.640137 245.298355,281.897888 245.032288,282.155609 
	C245.032288,282.155609 245.054733,282.067169 244.737305,282.079651 
	C243.639786,282.805695 242.859680,283.519226 242.079590,284.232758 
	C241.753433,284.513885 241.427277,284.795013 240.569946,285.197144 
	C239.700867,285.586456 239.362976,285.854797 239.025070,286.123138 
	C239.025070,286.123138 239.042053,286.026581 238.880585,286.133545 
	C238.448120,286.392975 238.215561,286.590607 238.021423,286.833405 
	C238.021423,286.833405 237.819763,287.102814 237.273438,287.111145 
	C235.831314,287.787964 234.935547,288.456451 234.039780,289.124939 
	C233.578140,289.446381 233.116516,289.767822 232.232758,290.017120 
	C231.547150,290.238983 231.283661,290.533051 231.020172,290.827087 
	C231.020172,290.827087 230.779358,291.095276 230.344101,291.190613 
	C229.615250,291.485016 229.321655,291.684143 229.028046,291.883240 
	C229.028046,291.883240 228.823303,292.128540 228.293884,292.118774 
	C226.834290,292.696564 225.904129,293.284088 224.973969,293.871613 
	C224.973969,293.871613 224.742935,294.111603 224.173218,294.098785 
	C221.733582,295.071411 219.863647,296.056854 217.993713,297.042297 
	C217.993713,297.042297 217.855026,297.243164 217.301605,297.163635 
	C215.137497,297.403259 213.505249,297.640106 211.919724,298.055328 
	C203.268677,300.320831 194.747681,303.669769 185.956863,304.672272 
	C173.852066,306.052643 161.545197,305.639069 149.327744,306.074585 
	C147.223022,306.149628 145.132568,306.625000 143.035507,306.915466 
	C132.946594,304.565460 122.857674,302.215485 112.184654,299.601440 
	C107.106873,297.463593 102.613190,295.589752 98.119507,293.715912 
	C98.119514,293.715912 98.128784,293.835510 97.978348,293.586243 
	C97.228600,293.145782 96.629303,292.954590 96.029999,292.763428 
	C96.029999,292.763428 96.073891,292.901428 95.958755,292.616974 
	C95.251793,292.118622 94.659966,291.904755 94.068146,291.690887 
	C94.068138,291.690887 94.100067,291.850677 93.989540,291.578735 
	C93.301559,291.066162 92.724098,290.825562 92.146637,290.584961 
	C92.146645,290.584961 92.160141,290.748627 92.055290,290.483093 
	C91.381248,289.970886 90.812057,289.724182 90.242874,289.477448 
	C90.242874,289.477448 90.260551,289.618256 90.153244,289.377686 
	C89.391602,288.831329 88.737259,288.525543 88.082916,288.219788 
	C77.590271,280.727997 67.195770,273.439484 57.776711,264.227905 
	C44.897148,251.632004 36.468769,236.551086 27.462494,221.608917 
	C25.240461,217.922394 24.436850,213.390717 22.908550,209.274521 
	C17.258984,194.058350 14.800697,178.244629 14.040682,162.114075 
	C12.802080,135.825989 19.183229,111.322571 31.472916,88.229980 
	C38.388512,75.235443 46.404621,62.871010 57.117630,52.782486 
	C64.902405,45.451500 73.600128,38.911060 82.579689,33.078785 
	C91.306587,27.410620 100.474121,21.808628 110.234398,18.489758 
	C124.253761,13.722630 138.847992,10.571365 153.882111,9.929076 
	C172.045425,9.153102 189.946686,11.165572 207.129333,16.479471 
	C221.590363,20.951677 235.641769,27.252344 247.636810,36.898640 
	C256.869293,44.323318 266.105469,51.884247 274.348663,60.349834 
	C280.052795,66.207832 284.068909,73.709534 289.138489,81.059616 
	C290.226593,82.840302 291.015472,84.038109 291.804352,85.235916 
	C291.804352,85.235916 291.826630,85.128059 291.834106,85.423744 
	C292.325470,86.600227 292.809387,87.481033 293.293274,88.361839 
	C293.293274,88.361839 293.264130,88.507965 293.425079,88.787262 
	C293.855316,89.506592 294.124603,89.946625 294.393890,90.386658 
	C294.393890,90.386650 294.519623,90.406731 294.549103,90.694611 
	C294.868591,91.450508 295.158600,91.918510 295.448608,92.386520 
	C295.448608,92.386520 295.685333,92.350723 295.623535,92.637909 
	C295.811218,93.401695 296.060638,93.878304 296.310089,94.354919 
	C296.310089,94.354919 296.275360,94.474190 296.421509,94.807259 
	C296.988800,95.831062 297.409943,96.521805 297.831085,97.212547 
	C297.831085,97.212547 297.859100,97.104439 297.864258,97.459923 
	C298.901550,100.196808 299.933685,102.578217 300.965820,104.959625 
M282.079834,89.418571 
	C281.728668,89.024384 281.377472,88.630196 280.610565,87.667831 
	C275.741516,80.772018 270.872498,73.876198 265.959259,66.267555 
	C264.140717,63.363007 263.353149,59.265282 258.238403,59.753910 
	C258.238403,59.753910 258.153656,59.465786 258.435364,58.785583 
	C257.124207,53.757507 252.992325,51.893238 248.086212,49.907822 
	C247.066696,49.422424 245.959900,49.063572 245.042130,48.430630 
	C239.958862,44.924900 235.077271,41.101414 229.837769,37.852570 
	C216.977982,29.878624 202.495819,25.941198 187.941086,22.975441 
	C160.047836,17.291750 132.938797,20.915401 106.366325,32.197517 
	C106.026939,32.287247 105.808334,32.500847 105.859215,32.854149 
	C105.859215,32.854149 105.862106,32.704620 105.137627,32.831524 
	C102.014412,34.486263 98.891190,36.141003 95.868263,37.823086 
	C95.868263,37.823086 95.881790,37.720013 95.286102,37.848042 
	C94.806328,38.201344 94.326553,38.554646 93.939438,38.936111 
	C93.939438,38.936111 93.962326,38.842014 93.262695,38.951698 
	C90.792625,40.606380 88.322556,42.261063 85.949165,43.937042 
	C85.949165,43.937042 85.965408,43.839390 85.451492,43.915276 
	C85.102280,44.264111 84.753059,44.612946 83.887634,45.462124 
	C77.966232,50.158039 71.402344,54.248924 66.275574,59.693138 
	C58.778770,67.654121 51.560337,76.090836 45.563446,85.206459 
	C32.889973,104.470871 26.048235,125.893074 24.650724,149.783661 
	C24.780354,156.503952 24.909983,163.224228 24.975231,170.763763 
	C25.000278,173.914413 24.417738,177.218140 25.165640,180.186676 
	C27.307774,188.689133 29.615881,197.187866 32.538933,205.447342 
	C38.138607,221.269989 46.877384,235.208405 57.405403,248.385574 
	C65.817207,258.914032 76.038971,267.105896 86.672890,274.696716 
	C96.856354,281.966034 108.191490,287.727539 121.034035,291.697357 
	C123.308395,292.306152 125.582756,292.914978 127.927727,293.353363 
	C127.927727,293.353363 127.752525,293.295502 128.283752,293.841644 
	C141.276779,297.562469 154.523148,298.818542 168.900223,298.053864 
	C177.597504,296.718323 186.294769,295.382782 195.770935,294.080994 
	C201.559296,292.062561 207.591431,290.551300 213.081604,287.912476 
	C222.433456,283.417542 232.098709,279.113464 240.420868,273.062958 
	C249.305496,266.603516 257.156433,258.564545 264.758514,250.550964 
	C270.399719,244.604446 275.391785,237.899307 279.839905,230.995331 
	C287.671936,218.839096 293.035217,205.528198 296.482269,190.649994 
	C300.473511,173.921402 301.657928,157.057571 299.001801,139.334412 
	C298.943176,138.890244 298.884552,138.446075 298.890320,137.182648 
	C297.300598,130.694901 295.710876,124.207153 293.768951,117.116470 
	C293.491547,116.056992 293.214142,114.997513 292.963745,113.412758 
	C292.757721,113.145287 292.551697,112.877815 292.372559,112.789856 
	C292.372559,112.789856 292.546906,112.739357 292.492035,112.004700 
	C291.720490,110.263947 290.948914,108.523193 290.126556,106.916397 
	C290.126556,106.916397 290.263641,106.958000 290.191956,106.219154 
	C289.196198,104.069557 288.200439,101.919960 287.192780,99.882545 
	C287.192780,99.882545 287.305573,99.880249 287.171753,99.160812 
	C285.837585,96.700615 284.503387,94.240417 283.125702,91.915649 
	C283.125702,91.915649 283.263763,91.949921 283.167328,91.323593 
	C282.802856,90.833694 282.438354,90.343803 282.049255,89.960938 
	C282.049255,89.960938 282.157135,89.981606 282.079834,89.418571 
z"/>
<path fill="#E9F9F6" opacity="1.000000" stroke="none" 
	d="
M143.430939,307.056427 
	C145.132568,306.625000 147.223022,306.149628 149.327744,306.074585 
	C161.545197,305.639069 173.852066,306.052643 185.956863,304.672272 
	C194.747681,303.669769 203.268677,300.320831 211.919724,298.055328 
	C213.505249,297.640106 215.137497,297.403259 217.194275,297.105530 
	C209.397964,303.121552 199.442932,303.731201 189.978073,305.645477 
	C174.721939,308.730988 159.300125,309.355713 143.430939,307.056427 
z"/>
<path fill="#EBFCF9" opacity="1.000000" stroke="none" 
	d="
M307.585815,186.825562 
	C307.562988,182.962555 307.777710,178.773987 307.987274,174.585144 
	C308.450989,165.316238 308.912048,156.047195 309.559021,146.416183 
	C312.926697,159.717850 309.331177,173.059296 307.585815,186.825562 
z"/>
<path fill="#BFE7DA" opacity="1.000000" stroke="none" 
	d="
M307.679779,217.160645 
	C309.124512,220.691879 305.479614,230.737991 302.155029,232.928879 
	C302.072998,232.982925 301.668396,232.547440 301.211853,232.172501 
	C303.131897,227.115585 305.254333,222.226425 307.679779,217.160645 
z"/>
<path fill="#258778" opacity="1.000000" stroke="none" 
	d="
M202.128113,6.704833 
	C210.270767,9.282648 218.567398,12.157042 227.123291,15.257156 
	C220.666046,13.349957 213.939621,11.247420 207.239914,9.062976 
	C205.543579,8.509880 203.932373,7.695648 202.128113,6.704833 
z"/>
<path fill="#B6ECE5" opacity="1.000000" stroke="none" 
	d="
M6.226598,140.688873 
	C5.873396,134.275192 5.644060,127.501328 9.445371,121.163788 
	C8.635801,127.461021 7.509551,133.897385 6.226598,140.688873 
z"/>
<path fill="#C6E9DB" opacity="1.000000" stroke="none" 
	d="
M59.088089,277.543182 
	C54.756660,277.584259 52.200935,275.288086 51.795174,270.513794 
	C54.248554,272.557343 56.607235,274.891571 59.088089,277.543182 
z"/>
<path fill="#157D6D" opacity="1.000000" stroke="none" 
	d="
M98.244156,294.048828 
	C102.613190,295.589752 107.106873,297.463593 111.812103,299.612885 
	C107.472054,298.052826 102.920433,296.217285 98.244156,294.048828 
z"/>
<path fill="#DCEFE3" opacity="1.000000" stroke="none" 
	d="
M319.026062,164.436188 
	C318.989410,168.572998 318.872070,173.132156 318.398407,177.842300 
	C318.343201,173.615036 318.644287,169.236786 319.026062,164.436188 
z"/>
<path fill="#DCEFE3" opacity="1.000000" stroke="none" 
	d="
M318.837860,150.507904 
	C322.001587,153.675156 321.642883,157.611679 319.469360,161.828812 
	C319.044922,158.307220 318.965759,154.634674 318.837860,150.507904 
z"/>
<path fill="#258778" opacity="1.000000" stroke="none" 
	d="
M186.293991,3.401502 
	C190.470673,4.100766 194.922928,5.029441 199.521545,6.320370 
	C195.301804,5.665386 190.935684,4.648149 186.293991,3.401502 
z"/>
<path fill="#E9F9F6" opacity="1.000000" stroke="none" 
	d="
M246.592346,281.214478 
	C248.330414,279.590698 250.393906,277.851929 252.836487,276.134888 
	C251.116302,277.804260 249.017044,279.451904 246.592346,281.214478 
z"/>
<path fill="#188273" opacity="1.000000" stroke="none" 
	d="
M301.169250,104.729126 
	C299.933685,102.578217 298.901550,100.196808 297.809082,97.451416 
	C298.956726,99.557816 300.164703,102.028221 301.169250,104.729126 
z"/>
<path fill="#E9F9F6" opacity="1.000000" stroke="none" 
	d="
M253.464203,276.096283 
	C254.504684,275.056152 255.854843,273.898529 257.475708,272.838593 
	C256.422272,273.950439 255.098083,274.964630 253.464203,276.096283 
z"/>
<path fill="#258778" opacity="1.000000" stroke="none" 
	d="
M227.495453,15.802421 
	C229.521927,16.418619 231.658218,17.374113 234.005219,18.601599 
	C232.012375,17.962965 229.808823,17.052341 227.495453,15.802421 
z"/>
<path fill="#E9F9F6" opacity="1.000000" stroke="none" 
	d="
M218.347702,297.006775 
	C219.863647,296.056854 221.733582,295.071411 224.006714,294.094116 
	C222.507187,295.058655 220.604446,296.014984 218.347702,297.006775 
z"/>
<path fill="#188273" opacity="1.000000" stroke="none" 
	d="
M291.814056,84.892227 
	C291.015472,84.038109 290.226593,82.840302 289.356018,81.338120 
	C290.124115,82.205353 290.973938,83.376945 291.814056,84.892227 
z"/>
<path fill="#E9F9F6" opacity="1.000000" stroke="none" 
	d="
M234.384613,289.067993 
	C234.935547,288.456451 235.831314,287.787964 237.107422,287.138580 
	C236.568298,287.775452 235.648880,288.393219 234.384613,289.067993 
z"/>
<path fill="#E9F9F6" opacity="1.000000" stroke="none" 
	d="
M225.307343,293.840790 
	C225.904129,293.284088 226.834290,292.696564 228.134308,292.126770 
	C227.549683,292.699677 226.595200,293.254822 225.307343,293.840790 
z"/>
<path fill="#E9F9F6" opacity="1.000000" stroke="none" 
	d="
M242.382294,284.134338 
	C242.859680,283.519226 243.639786,282.805695 244.780762,282.093536 
	C244.322754,282.741913 243.503876,283.388916 242.382294,284.134338 
z"/>
<path fill="#188273" opacity="1.000000" stroke="none" 
	d="
M293.418213,88.030853 
	C292.809387,87.481033 292.325470,86.600227 291.779205,85.419426 
	C292.325623,85.979576 292.934387,86.839722 293.418213,88.030853 
z"/>
<path fill="#157D6D" opacity="1.000000" stroke="none" 
	d="
M88.179977,288.511780 
	C88.737259,288.525543 89.391602,288.831329 90.220299,289.354462 
	C89.688782,289.315796 88.982918,289.059814 88.179977,288.511780 
z"/>
<path fill="#188273" opacity="1.000000" stroke="none" 
	d="
M302.782196,109.423103 
	C302.447296,109.137192 302.164276,108.550659 301.871887,107.630814 
	C302.186401,107.905830 302.510223,108.514160 302.782196,109.423103 
z"/>
<path fill="#188273" opacity="1.000000" stroke="none" 
	d="
M297.854431,96.857559 
	C297.409943,96.521805 296.988800,95.831062 296.468445,94.847916 
	C296.872101,95.204529 297.374939,95.853546 297.854431,96.857559 
z"/>
<path fill="#E9F9F6" opacity="1.000000" stroke="none" 
	d="
M231.242340,290.802979 
	C231.283661,290.533051 231.547150,290.238983 231.946533,290.057434 
	C231.979065,290.477051 231.773087,290.680023 231.242340,290.802979 
z"/>
<path fill="#157D6D" opacity="1.000000" stroke="none" 
	d="
M96.232620,293.016693 
	C96.629303,292.954590 97.228600,293.145782 98.037270,293.575012 
	C97.642838,293.632019 97.039040,293.450989 96.232620,293.016693 
z"/>
<path fill="#157D6D" opacity="1.000000" stroke="none" 
	d="
M90.388016,289.777954 
	C90.812057,289.724182 91.381248,289.970886 92.135796,290.466949 
	C91.725151,290.503693 91.129158,290.291107 90.388016,289.777954 
z"/>
<path fill="#157D6D" opacity="1.000000" stroke="none" 
	d="
M92.308640,290.872925 
	C92.724098,290.825562 93.301559,291.066162 94.068108,291.557190 
	C93.661682,291.592041 93.066154,291.376465 92.308640,290.872925 
z"/>
<path fill="#188273" opacity="1.000000" stroke="none" 
	d="
M296.403992,94.047897 
	C296.060638,93.878304 295.811218,93.401695 295.499603,92.662605 
	C295.790924,92.847038 296.144409,93.293961 296.403992,94.047897 
z"/>
<path fill="#188273" opacity="1.000000" stroke="none" 
	d="
M295.510223,92.067261 
	C295.158600,91.918510 294.868591,91.450508 294.489899,90.718018 
	C294.791412,90.885033 295.181641,91.316513 295.510223,92.067261 
z"/>
<path fill="#188273" opacity="1.000000" stroke="none" 
	d="
M294.464905,90.078339 
	C294.124603,89.946625 293.855316,89.506592 293.487610,88.827789 
	C293.771423,88.982689 294.153656,89.376350 294.464905,90.078339 
z"/>
<path fill="#EBFCF9" opacity="1.000000" stroke="none" 
	d="
M306.760986,190.647949 
	C306.622772,190.405640 306.620148,189.857559 306.789124,189.162872 
	C306.939331,189.458252 306.917969,189.900208 306.760986,190.647949 
z"/>
<path fill="#157D6D" opacity="1.000000" stroke="none" 
	d="
M94.252815,291.957947 
	C94.659966,291.904755 95.251793,292.118622 96.026497,292.591370 
	C95.618744,292.641815 95.028114,292.433411 94.252815,291.957947 
z"/>
<path fill="#E9F9F6" opacity="1.000000" stroke="none" 
	d="
M229.302567,291.848511 
	C229.321655,291.684143 229.615250,291.485016 230.164810,291.208679 
	C230.139542,291.358917 229.858307,291.586365 229.302567,291.848511 
z"/>
<path fill="#E9F9F6" opacity="1.000000" stroke="none" 
	d="
M238.260193,286.791748 
	C238.215561,286.590607 238.448120,286.392975 238.928574,286.143494 
	C239.022949,286.369934 238.809921,286.604492 238.260193,286.791748 
z"/>
<path fill="#E9F9F6" opacity="1.000000" stroke="none" 
	d="
M245.314056,282.083679 
	C245.298355,281.897888 245.564407,281.640137 246.092133,281.276184 
	C246.101151,281.450592 245.848480,281.731140 245.314056,282.083679 
z"/>
<path fill="#E9F9F6" opacity="1.000000" stroke="none" 
	d="
M239.352509,286.047974 
	C239.362976,285.854797 239.700867,285.586456 240.343475,285.197571 
	C240.325424,285.375610 240.002686,285.674225 239.352509,286.047974 
z"/>
<path fill="#028F82" opacity="1.000000" stroke="none" 
	d="
M106.838150,32.206066 
	C132.938797,20.915401 160.047836,17.291750 187.941086,22.975441 
	C202.495819,25.941198 216.977982,29.878624 229.837769,37.852570 
	C235.077271,41.101414 239.958862,44.924900 245.042130,48.430630 
	C245.959900,49.063572 247.066696,49.422424 248.485748,50.372978 
	C251.974747,53.714024 255.064209,56.589905 258.153656,59.465786 
	C258.153656,59.465786 258.238403,59.753910 258.569153,60.044693 
	C261.267761,62.550446 263.635620,64.765411 266.003479,66.980377 
	C270.872498,73.876198 275.741516,80.772018 280.870544,88.218956 
	C281.472717,89.173920 281.814941,89.577766 282.157135,89.981606 
	C282.157135,89.981606 282.049255,89.960938 282.097534,90.224167 
	C282.518494,90.974907 282.891113,91.462418 283.263763,91.949921 
	C283.263763,91.949921 283.125702,91.915649 283.112671,92.233994 
	C284.501587,94.994980 285.903595,97.437614 287.305573,99.880249 
	C287.305573,99.880249 287.192780,99.882545 287.152222,100.210106 
	C288.162323,102.677780 289.212982,104.817894 290.263641,106.958008 
	C290.263641,106.958000 290.126556,106.916397 290.099243,107.247459 
	C290.896912,109.298798 291.721893,111.019081 292.546906,112.739365 
	C292.546906,112.739357 292.372559,112.789856 292.378784,112.953918 
	C292.568909,113.391327 292.752838,113.664680 292.936737,113.938034 
	C293.214142,114.997513 293.491547,116.056992 293.902100,117.860451 
	C295.632172,125.070251 297.229034,131.536087 298.825897,138.001907 
	C298.884552,138.446075 298.943176,138.890244 298.738617,139.980835 
	C298.343140,141.268799 298.098206,141.909805 298.095367,142.551910 
	C298.048889,153.090317 298.243134,163.635162 297.926422,174.164841 
	C297.753784,179.903259 296.726074,185.615967 296.084015,191.340271 
	C293.035217,205.528198 287.671936,218.839096 279.839905,230.995331 
	C275.391785,237.899307 270.399719,244.604446 264.758514,250.550964 
	C257.156433,258.564545 249.305496,266.603516 240.420868,273.062958 
	C232.098709,279.113464 222.433456,283.417542 213.081604,287.912476 
	C207.591431,290.551300 201.559296,292.062561 194.944336,294.035675 
	C185.416382,295.011749 176.715012,296.033112 167.545685,297.041016 
	C161.312103,296.711761 155.526932,296.594696 149.785736,296.030457 
	C142.422836,295.306915 135.095291,294.223755 127.752525,293.295532 
	C127.752525,293.295502 127.927727,293.353363 127.698334,293.090820 
	C125.128395,292.276611 122.787834,291.724945 120.447281,291.173309 
	C108.191490,287.727539 96.856354,281.966034 86.672890,274.696716 
	C76.038971,267.105896 65.817207,258.914032 57.405403,248.385574 
	C46.877384,235.208405 38.138607,221.269989 32.538933,205.447342 
	C29.615881,197.187866 27.307774,188.689133 25.165640,180.186676 
	C24.417738,177.218140 25.000278,173.914413 25.219318,170.008942 
	C25.298954,162.515167 25.134506,155.776215 24.970057,149.037277 
	C26.048235,125.893074 32.889973,104.470871 45.563446,85.206459 
	C51.560337,76.090836 58.778770,67.654121 66.275574,59.693138 
	C71.402344,54.248924 77.966232,50.158039 84.393387,45.161354 
	C85.254562,44.520187 85.609985,44.179790 85.965408,43.839394 
	C85.965408,43.839390 85.949165,43.937042 86.264389,43.901093 
	C89.040512,42.190769 91.501419,40.516392 93.962326,38.842014 
	C93.962326,38.842014 93.939438,38.936111 94.207581,38.896095 
	C94.944412,38.477394 95.413101,38.098705 95.881790,37.720016 
	C95.881790,37.720013 95.868263,37.823086 96.206154,37.848305 
	C99.650063,36.150555 102.756088,34.427586 105.862106,32.704620 
	C105.862106,32.704620 105.859215,32.854149 106.001114,32.791225 
	C106.423500,32.619091 106.655212,32.445011 106.838150,32.206066 
M83.014275,63.974476 
	C83.014275,63.974476 83.123024,63.992813 82.695312,64.362762 
	C82.527771,64.698624 82.360229,65.034492 82.323997,65.170914 
	C82.323997,65.170914 82.515190,65.313965 82.189873,65.368523 
	C82.189873,65.368523 81.974289,65.719856 81.974289,65.719856 
	C81.974289,65.719856 82.218338,66.129272 82.418869,66.827667 
	C83.418846,68.776543 83.912430,71.572334 85.507454,72.526054 
	C92.027122,76.424408 94.065292,82.124878 94.050354,89.300194 
	C93.965065,130.284866 93.749397,171.272537 94.189980,212.252625 
	C94.292702,221.806366 92.081505,228.863174 83.711212,234.055786 
	C78.770966,237.120514 79.308243,241.698456 84.466370,245.968704 
	C87.149178,246.315430 89.830292,246.946289 92.515060,246.962189 
	C108.508072,247.056900 124.502022,247.038086 140.495422,246.985504 
	C143.647339,246.975159 147.061523,247.123886 147.976929,242.412994 
	C147.976929,242.412994 148.045837,241.964920 148.485809,241.362289 
	C148.089859,239.630020 147.693909,237.897766 146.858170,235.720505 
	C136.845825,231.052582 134.209457,222.721146 134.908783,212.443848 
	C135.256439,207.334732 134.831223,202.173050 134.898590,196.111496 
	C134.844452,192.064514 134.790314,188.017548 134.868546,183.504379 
	C134.868546,183.504379 134.735214,183.038452 134.883575,182.348251 
	C134.838669,181.881790 134.793747,181.415344 134.915390,180.091995 
	C134.929199,178.602371 134.437332,176.847473 135.053101,175.673615 
	C136.793777,172.355270 138.305420,168.178833 141.182098,166.386353 
	C144.564575,164.278702 146.377792,168.752777 148.024048,171.107300 
	C153.088959,178.351273 157.842255,185.813141 162.892334,193.840683 
	C163.894928,195.256821 164.897522,196.672943 166.000381,198.007645 
	C166.000381,198.007645 165.904297,198.096024 166.059814,198.775635 
	C167.676208,201.196671 169.292587,203.617706 170.915421,206.073334 
	C170.915421,206.073334 170.942169,206.096222 171.022583,206.628525 
	C171.428467,207.219833 171.834351,207.811142 172.212585,208.620224 
	C172.212585,208.620224 172.408554,208.719131 172.711105,209.290207 
	C173.794632,210.864594 174.878159,212.438995 175.983612,214.019073 
	C175.983612,214.019073 175.977264,214.041000 176.093140,214.646317 
	C176.706589,215.455063 177.320038,216.263824 178.001801,217.018326 
	C178.001801,217.018326 177.921371,217.051025 178.049408,217.655975 
	C178.329117,217.949356 178.608841,218.242752 178.892868,218.845886 
	C178.892868,218.845886 179.135422,219.038589 179.193787,219.534607 
	C179.340698,219.855804 179.580307,220.076248 179.993210,220.663406 
	C179.993210,220.663406 180.319794,221.007416 180.431351,221.619583 
	C181.271591,222.759628 182.111816,223.899658 182.999390,225.003845 
	C182.999390,225.003845 182.957077,225.047073 183.102600,225.720062 
	C184.358063,227.522217 185.613525,229.324371 186.995880,230.998764 
	C186.995880,230.998764 186.864227,231.122894 187.007538,231.817917 
	C188.631165,234.255096 190.254791,236.692261 192.006241,239.029312 
	C192.006241,239.029312 191.870300,239.115356 192.032150,239.804291 
	C194.378418,241.856125 196.724686,243.907959 199.819504,246.302444 
	C200.611389,246.515335 201.402603,246.911041 202.195267,246.913925 
	C215.733826,246.963287 229.272690,246.988281 242.811081,246.928619 
	C243.873428,246.923935 244.932846,246.254272 246.048737,245.525940 
	C246.048737,245.525940 246.112564,245.159607 246.783844,244.918900 
	C250.643784,241.071442 251.015427,236.243057 247.458145,234.198776 
	C242.422974,231.305191 237.273712,228.610107 232.050552,225.921432 
	C232.050552,225.921432 232.194168,225.868988 231.988983,225.366486 
	C231.689224,225.174881 231.389465,224.983261 231.094528,224.874603 
	C231.094528,224.874603 231.176300,224.859802 231.086746,224.192459 
	C229.711655,222.829315 228.336563,221.466156 226.973740,220.032852 
	C226.973740,220.032852 226.902832,220.026276 226.784241,219.557281 
	C226.616287,219.264084 226.372574,219.062424 225.857635,218.276474 
	C220.630951,210.753418 215.273346,203.317276 210.206741,195.687912 
	C201.544113,182.643661 193.120392,169.440887 184.480469,156.381332 
	C180.756149,150.751907 176.738693,145.316544 172.862671,139.787231 
	C171.260986,137.502396 170.367096,135.060379 172.473495,132.678635 
	C177.040955,127.514130 181.707932,122.436768 186.378021,117.364090 
	C191.016922,112.325310 195.845245,107.454155 200.340637,102.291908 
	C204.916245,97.037598 209.140884,91.478928 213.635101,86.151291 
	C214.426392,85.213287 215.784592,84.751259 216.885849,84.077385 
	C223.304031,80.150017 229.841171,76.401794 236.103622,72.240189 
	C240.657379,69.214058 240.036102,64.917038 234.911545,61.550552 
	C234.607742,61.358154 234.303925,61.165752 233.339508,60.470844 
	C232.698654,60.325207 232.058029,60.053474 231.416931,60.052357 
	C214.850830,60.023548 198.284546,59.997906 181.718719,60.068851 
	C180.503174,60.074059 179.290771,60.812340 178.035126,61.616638 
	C178.035126,61.616638 178.009567,62.024815 177.294037,62.198906 
	C172.976318,65.928200 173.259598,70.565964 177.947266,73.240845 
	C179.230103,73.972862 180.679871,74.583618 181.674667,75.614975 
	C184.060013,78.088005 183.065872,82.824394 179.660339,86.897964 
	C169.525085,99.021400 159.470535,111.212524 149.300018,123.306190 
	C145.337402,128.018112 141.149414,132.540527 135.996353,138.353806 
	C135.190567,131.659958 134.547424,126.317101 134.042496,120.212799 
	C134.046310,119.180725 134.050110,118.148659 134.753632,116.641670 
	C134.753922,113.776314 134.754196,110.910965 134.897369,107.139664 
	C134.848038,104.086639 134.798721,101.033615 134.894318,97.504364 
	C134.894318,97.504364 134.761139,97.024712 134.907791,96.224892 
	C134.859528,95.145233 134.811249,94.065582 134.898285,92.503807 
	C134.851532,92.343575 134.804779,92.183342 134.894058,91.336555 
	C134.842346,90.875992 134.790634,90.415428 134.888794,89.152107 
	C134.936386,82.310104 138.646530,77.613098 143.753723,73.604691 
	C148.659088,69.754684 148.780060,67.903656 144.530289,62.809666 
	C144.029266,62.528328 143.528229,62.246994 142.998993,61.650715 
	C142.998993,61.650715 142.919800,61.344585 142.353226,60.732220 
	C141.407593,60.491814 140.462494,60.044292 139.516251,60.041821 
	C123.253593,59.999340 106.990707,59.990856 90.728188,60.053127 
	C89.469177,60.057953 88.212410,60.644333 86.335091,61.135082 
	C85.899559,61.585449 85.464027,62.035820 84.859871,62.813419 
	C84.658958,62.980846 84.428780,63.048088 83.722816,63.308086 
	C83.480263,63.566418 83.237701,63.824753 83.014275,63.974476 
z"/>
<path fill="#16766B" opacity="1.000000" stroke="none" 
	d="
M296.283142,190.995132 
	C296.726074,185.615967 297.753784,179.903259 297.926422,174.164841 
	C298.243134,163.635162 298.048889,153.090317 298.095367,142.551910 
	C298.098206,141.909805 298.343140,141.268799 298.699036,140.316071 
	C301.657928,157.057571 300.473511,173.921402 296.283142,190.995132 
z"/>
<path fill="#117769" opacity="1.000000" stroke="none" 
	d="
M128.018143,293.568604 
	C135.095291,294.223755 142.422836,295.306915 149.785736,296.030457 
	C155.526932,296.594696 161.312103,296.711761 167.540466,297.257751 
	C168.003189,297.488007 167.990677,297.922699 167.990677,297.922699 
	C154.523148,298.818542 141.276779,297.562469 128.018143,293.568604 
z"/>
<path fill="#2B8D85" opacity="1.000000" stroke="none" 
	d="
M24.810390,149.410461 
	C25.134506,155.776215 25.298954,162.515167 25.251507,169.599304 
	C24.909983,163.224228 24.780354,156.503952 24.810390,149.410461 
z"/>
<path fill="#217F74" opacity="1.000000" stroke="none" 
	d="
M168.445450,297.988281 
	C167.990677,297.922699 168.003189,297.488007 168.008423,297.271240 
	C176.715012,296.033112 185.416382,295.011749 194.554901,294.018799 
	C186.294769,295.382782 177.597504,296.718323 168.445450,297.988281 
z"/>
<path fill="#2A8378" opacity="1.000000" stroke="none" 
	d="
M298.858093,137.592285 
	C297.229034,131.536087 295.632172,125.070251 294.078217,118.161911 
	C295.710876,124.207153 297.300598,130.694901 298.858093,137.592285 
z"/>
<path fill="#E9FAF8" opacity="1.000000" stroke="none" 
	d="
M258.294495,59.125687 
	C255.064209,56.589905 251.974747,53.714024 248.818237,50.494850 
	C252.992325,51.893238 257.124207,53.757507 258.294495,59.125687 
z"/>
<path fill="#E9FAF8" opacity="1.000000" stroke="none" 
	d="
M265.981384,66.623962 
	C263.635620,64.765411 261.267761,62.550446 258.712433,60.089676 
	C263.353149,59.265282 264.140717,63.363007 265.981384,66.623962 
z"/>
<path fill="#197E73" opacity="1.000000" stroke="none" 
	d="
M105.499863,32.768074 
	C102.756088,34.427586 99.650063,36.150555 96.156006,37.834633 
	C98.891190,36.141003 102.014412,34.486263 105.499863,32.768074 
z"/>
<path fill="#1A7B6C" opacity="1.000000" stroke="none" 
	d="
M287.238647,99.520531 
	C285.903595,97.437614 284.501587,94.994980 283.134399,92.166283 
	C284.503387,94.240417 285.837585,96.700615 287.238647,99.520531 
z"/>
<path fill="#197E73" opacity="1.000000" stroke="none" 
	d="
M93.612511,38.896858 
	C91.501419,40.516392 89.040512,42.190769 86.216049,43.890446 
	C88.322556,42.261063 90.792625,40.606380 93.612511,38.896858 
z"/>
<path fill="#1A7B6C" opacity="1.000000" stroke="none" 
	d="
M290.227783,106.588577 
	C289.212982,104.817894 288.162323,102.677780 287.158203,100.154022 
	C288.200439,101.919960 289.196198,104.069557 290.227783,106.588577 
z"/>
<path fill="#117769" opacity="1.000000" stroke="none" 
	d="
M120.740662,291.435333 
	C122.787834,291.724945 125.128395,292.276611 127.663033,293.176025 
	C125.582756,292.914978 123.308395,292.306152 120.740662,291.435333 
z"/>
<path fill="#1A7B6C" opacity="1.000000" stroke="none" 
	d="
M292.519470,112.372032 
	C291.721893,111.019081 290.896912,109.298798 290.124634,107.180481 
	C290.948914,108.523193 291.720490,110.263947 292.519470,112.372032 
z"/>
<path fill="#197E73" opacity="1.000000" stroke="none" 
	d="
M95.583946,37.784027 
	C95.413101,38.098705 94.944412,38.477394 94.161247,38.882015 
	C94.326553,38.554646 94.806328,38.201344 95.583946,37.784027 
z"/>
<path fill="#197E73" opacity="1.000000" stroke="none" 
	d="
M85.708450,43.877335 
	C85.609985,44.179790 85.254562,44.520187 84.651489,44.911186 
	C84.753059,44.612946 85.102280,44.264111 85.708450,43.877335 
z"/>
<path fill="#1A7B6C" opacity="1.000000" stroke="none" 
	d="
M283.215546,91.636757 
	C282.891113,91.462418 282.518494,90.974907 282.109863,90.170654 
	C282.438354,90.343803 282.802856,90.833694 283.215546,91.636757 
z"/>
<path fill="#1A7B6C" opacity="1.000000" stroke="none" 
	d="
M282.118469,89.700089 
	C281.814941,89.577766 281.472717,89.173920 281.078430,88.503044 
	C281.377472,88.630196 281.728668,89.024384 282.118469,89.700089 
z"/>
<path fill="#197E73" opacity="1.000000" stroke="none" 
	d="
M106.602234,32.201790 
	C106.655212,32.445011 106.423500,32.619091 105.926758,32.783310 
	C105.808334,32.500847 106.026939,32.287247 106.602234,32.201790 
z"/>
<path fill="#1A7B6C" opacity="1.000000" stroke="none" 
	d="
M292.950256,113.675400 
	C292.752838,113.664680 292.568909,113.391327 292.365356,112.864166 
	C292.551697,112.877815 292.757721,113.145287 292.950256,113.675400 
z"/>
<path fill="#F3F5EB" opacity="1.000000" stroke="none" 
	d="
M148.045837,241.964920 
	C148.045837,241.964920 147.976929,242.412994 147.607376,242.750610 
	C144.496964,244.002670 141.770172,245.656235 139.012924,245.708633 
	C123.877640,245.996292 108.734825,245.927185 93.594803,245.892899 
	C90.456421,245.885788 87.318893,245.507950 84.180969,245.300949 
	C79.308243,241.698456 78.770966,237.120514 83.711212,234.055786 
	C92.081505,228.863174 94.292702,221.806366 94.189980,212.252625 
	C93.749397,171.272537 93.965065,130.284866 94.050354,89.300194 
	C94.065292,82.124878 92.027122,76.424408 85.507454,72.526054 
	C83.912430,71.572334 83.418846,68.776543 82.472740,66.303238 
	C82.526611,65.778816 82.515190,65.313965 82.515190,65.313965 
	C82.515190,65.313965 82.323997,65.170914 82.539368,65.149261 
	C82.877502,64.749336 83.000259,64.371078 83.123024,63.992813 
	C83.123024,63.992813 83.014275,63.974476 83.277893,63.956078 
	C83.750778,63.630169 83.960052,63.322655 84.169327,63.015144 
	C84.428780,63.048088 84.658958,62.980846 85.272690,62.534626 
	C86.136818,62.199986 86.588135,62.144138 87.382118,62.313644 
	C92.033058,62.692989 96.340492,62.946110 100.649765,62.982956 
	C115.404076,63.109123 130.159027,63.159378 144.913742,63.238579 
	C148.780060,67.903656 148.659088,69.754684 143.753723,73.604691 
	C138.646530,77.613098 134.936386,82.310104 134.649384,89.347748 
	C133.941071,89.720245 133.064484,89.892281 133.062332,90.074677 
	C132.990280,96.160484 132.890686,102.249992 133.039047,108.333008 
	C133.141937,112.551277 133.603149,116.760811 133.904266,120.974243 
	C134.547424,126.317101 135.190567,131.659958 135.996353,138.353806 
	C141.149414,132.540527 145.337402,128.018112 149.300018,123.306190 
	C159.470535,111.212524 169.525085,99.021400 179.660339,86.897964 
	C183.065872,82.824394 184.060013,78.088005 181.674667,75.614975 
	C180.679871,74.583618 179.230103,73.972862 177.947266,73.240845 
	C173.259598,70.565964 172.976318,65.928200 177.961578,62.087845 
	C178.812759,61.881321 178.996414,61.785862 179.393707,61.691437 
	C179.607315,61.692478 179.993225,61.875790 179.996490,62.151089 
	C179.998840,62.609932 179.997925,62.793472 180.101471,63.092751 
	C180.205933,63.208488 180.635696,63.277550 180.635696,63.277550 
	C180.635696,63.277550 181.000504,63.008430 181.333954,63.006363 
	C182.112030,63.004845 182.556656,63.005394 183.339630,63.244110 
	C184.478821,63.649979 185.279343,63.962158 186.080536,63.963955 
	C200.792786,63.996967 215.505219,64.016380 230.217239,63.954227 
	C231.465775,63.948952 232.711761,63.346405 234.150345,62.893150 
	C234.576981,62.566105 234.792175,62.347504 234.987305,62.109165 
	C240.036102,64.917038 240.657379,69.214058 236.103622,72.240189 
	C229.841171,76.401794 223.304031,80.150017 216.885849,84.077385 
	C215.784592,84.751259 214.426392,85.213287 213.635101,86.151291 
	C209.140884,91.478928 204.916245,97.037598 200.340637,102.291908 
	C195.845245,107.454155 191.016922,112.325310 186.378021,117.364090 
	C181.707932,122.436768 177.040955,127.514130 172.473495,132.678635 
	C170.367096,135.060379 171.260986,137.502396 172.862671,139.787231 
	C176.738693,145.316544 180.756149,150.751907 184.480469,156.381332 
	C193.120392,169.440887 201.544113,182.643661 210.206741,195.687912 
	C215.273346,203.317276 220.630951,210.753418 226.062790,218.817902 
	C226.438782,219.620453 226.650406,219.842773 226.902832,220.026276 
	C226.902832,220.026276 226.973740,220.032852 226.994507,220.425385 
	C228.402283,222.165222 229.789291,223.512512 231.176300,224.859802 
	C231.176300,224.859802 231.094528,224.874603 231.227722,225.059235 
	C231.638672,225.452240 231.916412,225.660614 232.194168,225.868988 
	C232.194168,225.868988 232.050552,225.921432 232.128845,226.227386 
	C233.036118,228.281799 233.410721,230.795959 234.791168,231.615173 
	C237.451309,233.193848 240.721191,233.709641 243.660706,234.863693 
	C246.215485,235.866714 249.189041,237.476807 247.571182,240.554932 
	C246.648483,242.310455 243.524857,243.776505 241.339493,243.852356 
	C231.371216,244.198334 221.380325,243.835754 211.405258,244.063965 
	C204.364029,244.225067 197.498077,244.273987 191.870300,239.115356 
	C191.870300,239.115356 192.006241,239.029312 191.970947,238.663025 
	C192.660172,234.198227 190.481613,232.151978 186.864227,231.122894 
	C186.864227,231.122894 186.995880,230.998764 186.950500,230.695587 
	C185.589111,228.610611 184.273102,226.828842 182.957092,225.047073 
	C182.957077,225.047073 182.999390,225.003845 182.974243,224.680008 
	C182.072647,223.239914 181.196228,222.123672 180.319794,221.007416 
	C180.319794,221.007416 179.993210,220.663406 179.863739,220.211945 
	C179.585388,219.477783 179.385773,219.237137 179.135422,219.038589 
	C179.135422,219.038589 178.892868,218.845886 178.785187,218.408356 
	C178.425461,217.664230 178.173416,217.357635 177.921371,217.051025 
	C177.921371,217.051025 178.001801,217.018326 177.963791,216.702606 
	C177.276276,215.604935 176.626770,214.822968 175.977264,214.041000 
	C175.977264,214.041000 175.983612,214.019073 175.965332,213.655609 
	C174.767563,211.767822 173.588058,210.243469 172.408554,208.719131 
	C172.408554,208.719131 172.212585,208.620224 172.331421,208.203308 
	C171.947571,207.222992 171.444870,206.659607 170.942169,206.096222 
	C170.942169,206.096222 170.915421,206.073334 170.917877,205.686005 
	C169.248306,202.897797 167.576294,200.496918 165.904297,198.096024 
	C165.904297,198.096024 166.000381,198.007645 165.959839,197.685928 
	C164.851761,195.972916 163.784210,194.581619 162.716644,193.190323 
	C157.842255,185.813141 153.088959,178.351273 148.024048,171.107300 
	C146.377792,168.752777 144.564575,164.278702 141.182098,166.386353 
	C138.305420,168.178833 136.793777,172.355270 135.053101,175.673615 
	C134.437332,176.847473 134.929199,178.602371 134.657867,180.234924 
	C134.110214,179.162094 133.820068,177.946320 133.305817,175.791473 
	C133.305817,190.639404 133.305817,204.443665 133.305817,218.247940 
	C133.403015,218.245483 133.500229,218.243027 133.597427,218.240570 
	C133.983490,211.172089 134.369553,204.103622 134.755615,197.035141 
	C134.831223,202.173050 135.256439,207.334732 134.908783,212.443848 
	C134.209457,222.721146 136.845825,231.052582 147.153549,236.359497 
	C147.647888,238.653961 147.846863,240.309433 148.045837,241.964920 
z"/>
<path fill="#ECF7F6" opacity="1.000000" stroke="none" 
	d="
M191.951233,239.459824 
	C197.498077,244.273987 204.364029,244.225067 211.405258,244.063965 
	C221.380325,243.835754 231.371216,244.198334 241.339493,243.852356 
	C243.524857,243.776505 246.648483,242.310455 247.571182,240.554932 
	C249.189041,237.476807 246.215485,235.866714 243.660706,234.863693 
	C240.721191,233.709641 237.451309,233.193848 234.791168,231.615173 
	C233.410721,230.795959 233.036118,228.281799 232.190186,226.181763 
	C237.273712,228.610107 242.422974,231.305191 247.458145,234.198776 
	C251.015427,236.243057 250.643784,241.071442 246.029556,244.981354 
	C244.454712,245.199234 243.634140,245.354675 242.357224,245.502289 
	C237.121307,245.492935 232.341125,245.440201 227.562347,245.500626 
	C218.064804,245.620712 208.568024,245.803131 199.070953,245.959778 
	C196.724686,243.907959 194.378418,241.856125 191.951233,239.459824 
z"/>
<path fill="#FCFEFE" opacity="1.000000" stroke="none" 
	d="
M179.997009,62.977016 
	C179.997925,62.793472 179.998840,62.609932 180.172440,62.005085 
	C180.345108,61.583782 180.795731,61.505470 181.011414,61.669312 
	C181.551117,61.722042 181.875153,61.610935 182.654633,61.487221 
	C191.531174,61.472298 199.952866,61.533348 208.373154,61.449955 
	C216.916214,61.365345 225.457855,61.138119 234.000122,60.973351 
	C234.303925,61.165752 234.607742,61.358154 234.949432,61.829857 
	C234.792175,62.347504 234.576981,62.566105 233.686523,62.884422 
	C216.354630,63.004562 199.677948,63.005253 183.001266,63.005939 
	C182.556656,63.005394 182.112030,63.004845 181.083099,62.998337 
	C180.331528,62.987251 180.164261,62.982132 179.997009,62.977016 
z"/>
<path fill="#05756B" opacity="1.000000" stroke="none" 
	d="
M86.954597,60.960411 
	C88.212410,60.644333 89.469177,60.057953 90.728188,60.053127 
	C106.990707,59.990856 123.253593,59.999340 139.516251,60.041821 
	C140.462494,60.044292 141.407593,60.491814 142.325607,60.970520 
	C141.498169,61.355129 140.698349,61.501434 139.549347,61.679062 
	C138.499954,61.689816 137.799744,61.669247 136.760010,61.452045 
	C133.580215,61.386738 130.739944,61.518063 127.438507,61.681274 
	C114.017006,61.704079 101.056671,61.694992 87.965530,61.513073 
	C87.580254,61.200157 87.311241,61.098640 87.009857,61.016434 
	C86.992050,60.997169 86.954597,60.960411 86.954597,60.960411 
z"/>
<path fill="#026E64" opacity="1.000000" stroke="none" 
	d="
M199.445221,246.131119 
	C208.568024,245.803131 218.064804,245.620712 227.562347,245.500626 
	C232.341125,245.440201 237.121307,245.492935 242.634521,245.676514 
	C244.243332,245.870239 245.118484,245.881958 245.993622,245.893661 
	C244.932846,246.254272 243.873428,246.923935 242.811081,246.928619 
	C229.272690,246.988281 215.733826,246.963287 202.195267,246.913925 
	C201.402603,246.911041 200.611389,246.515335 199.445221,246.131119 
z"/>
<path fill="#0C8075" opacity="1.000000" stroke="none" 
	d="
M84.323669,245.634827 
	C87.318893,245.507950 90.456421,245.885788 93.594803,245.892899 
	C108.734825,245.927185 123.877640,245.996292 139.012924,245.708633 
	C141.770172,245.656235 144.496964,244.002670 147.590088,242.976624 
	C147.061523,247.123886 143.647339,246.975159 140.495422,246.985504 
	C124.502022,247.038086 108.508072,247.056900 92.515060,246.962189 
	C89.830292,246.946289 87.149178,246.315430 84.323669,245.634827 
z"/>
<path fill="#FEF9FB" opacity="1.000000" stroke="none" 
	d="
M134.827103,196.573318 
	C134.369553,204.103622 133.983490,211.172089 133.597427,218.240570 
	C133.500229,218.243027 133.403015,218.245483 133.305817,218.247940 
	C133.305817,204.443665 133.305817,190.639404 133.305817,175.791473 
	C133.820068,177.946320 134.110214,179.162094 134.574585,180.663376 
	C134.793747,181.415344 134.838669,181.881790 134.713181,182.793884 
	C134.424820,183.526001 134.489273,183.769699 134.736160,183.970566 
	C134.790314,188.017548 134.844452,192.064514 134.827103,196.573318 
z"/>
<path fill="#FDFDFB" opacity="1.000000" stroke="none" 
	d="
M137.099533,61.648674 
	C137.799744,61.669247 138.499954,61.689816 139.923553,61.817009 
	C141.440369,61.937645 142.233795,61.951653 143.027206,61.965660 
	C143.528229,62.246994 144.029266,62.528328 144.722015,63.024124 
	C130.159027,63.159378 115.404076,63.109123 100.649765,62.982956 
	C96.340492,62.946110 92.033058,62.692989 87.295036,62.285576 
	C86.865288,62.032150 86.912453,61.855347 87.220001,61.893860 
	C87.717133,61.850216 87.906731,61.768063 88.096336,61.685905 
	C101.056671,61.694992 114.017006,61.704079 127.883804,61.813416 
	C131.560028,61.825336 134.329773,61.737003 137.099533,61.648674 
z"/>
<path fill="#026B63" opacity="1.000000" stroke="none" 
	d="
M233.669815,60.722099 
	C225.457855,61.138119 216.916214,61.365345 208.373154,61.449955 
	C199.952866,61.533348 191.531174,61.472298 182.435730,61.337368 
	C181.439484,61.301903 181.117599,61.403687 180.795731,61.505470 
	C180.795731,61.505470 180.345108,61.583782 180.169159,61.729786 
	C179.993225,61.875790 179.607315,61.692478 179.258728,61.524876 
	C178.646744,61.226871 178.369003,61.177711 178.076904,61.209801 
	C179.290771,60.812340 180.503174,60.074059 181.718719,60.068851 
	C198.284546,59.997906 214.850830,60.023548 231.416931,60.052357 
	C232.058029,60.053474 232.698654,60.325207 233.669815,60.722099 
z"/>
<path fill="#FEF8FD" opacity="1.000000" stroke="none" 
	d="
M133.973389,120.593521 
	C133.603149,116.760811 133.141937,112.551277 133.039047,108.333008 
	C132.890686,102.249992 132.990280,96.160484 133.062332,90.074677 
	C133.064484,89.892281 133.941071,89.720245 134.574448,89.749123 
	C134.790634,90.415428 134.842346,90.875992 134.729523,91.784973 
	C134.447601,92.527313 134.513596,92.778160 134.762970,92.985924 
	C134.811249,94.065582 134.859528,95.145233 134.736649,96.727570 
	C134.443298,97.520325 134.504593,97.770439 134.749405,97.980591 
	C134.798721,101.033615 134.848038,104.086639 134.635071,107.939194 
	C134.266495,111.531342 134.160202,114.323967 134.053925,117.116585 
	C134.050110,118.148659 134.046310,119.180725 133.973389,120.593521 
z"/>
<path fill="#ECF7F6" opacity="1.000000" stroke="none" 
	d="
M186.935883,231.470398 
	C190.481613,232.151978 192.660172,234.198227 191.907043,238.713104 
	C190.254791,236.692261 188.631165,234.255096 186.935883,231.470398 
z"/>
<path fill="#ECF7F6" opacity="1.000000" stroke="none" 
	d="
M165.982056,198.435822 
	C167.576294,200.496918 169.248306,202.897797 170.914642,205.668701 
	C169.292587,203.617706 167.676208,201.196671 165.982056,198.435822 
z"/>
<path fill="#ECF7F6" opacity="1.000000" stroke="none" 
	d="
M183.029846,225.383575 
	C184.273102,226.828842 185.589111,228.610611 186.887054,230.759460 
	C185.613525,229.324371 184.358063,227.522217 183.029846,225.383575 
z"/>
<path fill="#ECF7F6" opacity="1.000000" stroke="none" 
	d="
M231.131531,224.526123 
	C229.789291,223.512512 228.402283,222.165222 226.988373,220.460464 
	C228.336563,221.466156 229.711655,222.829315 231.131531,224.526123 
z"/>
<path fill="#ECF7F6" opacity="1.000000" stroke="none" 
	d="
M172.559830,209.004669 
	C173.588058,210.243469 174.767563,211.767822 175.954376,213.652771 
	C174.878159,212.438995 173.794632,210.864594 172.559830,209.004669 
z"/>
<path fill="#F3F5EB" opacity="1.000000" stroke="none" 
	d="
M134.403778,116.879128 
	C134.160202,114.323967 134.266495,111.531342 134.563629,108.392166 
	C134.754196,110.910965 134.753922,113.776314 134.403778,116.879128 
z"/>
<path fill="#ECF7F6" opacity="1.000000" stroke="none" 
	d="
M162.804489,193.515503 
	C163.784210,194.581619 164.851761,195.972916 165.909714,197.726639 
	C164.897522,196.672943 163.894928,195.256821 162.804489,193.515503 
z"/>
<path fill="#ECF7F6" opacity="1.000000" stroke="none" 
	d="
M180.375580,221.313507 
	C181.196228,222.123672 182.072647,223.239914 182.950562,224.697937 
	C182.111816,223.899658 181.271591,222.759628 180.375580,221.313507 
z"/>
<path fill="#0C8075" opacity="1.000000" stroke="none" 
	d="
M148.265823,241.663605 
	C147.846863,240.309433 147.647888,238.653961 147.373444,236.581985 
	C147.693909,237.897766 148.089859,239.630020 148.265823,241.663605 
z"/>
<path fill="#ECF7F6" opacity="1.000000" stroke="none" 
	d="
M176.035202,214.343658 
	C176.626770,214.822968 177.276276,215.604935 177.929642,216.729736 
	C177.320038,216.263824 176.706589,215.455063 176.035202,214.343658 
z"/>
<path fill="#ECF7F6" opacity="1.000000" stroke="none" 
	d="
M170.982376,206.362366 
	C171.444870,206.659607 171.947571,207.222992 172.345245,208.094421 
	C171.834351,207.811142 171.428467,207.219833 170.982376,206.362366 
z"/>
<path fill="#70B6AF" opacity="1.000000" stroke="none" 
	d="
M246.021179,245.709808 
	C245.118484,245.881958 244.243332,245.870239 243.090881,245.684326 
	C243.634140,245.354675 244.454712,245.199234 245.693909,245.101700 
	C246.112564,245.159607 246.048737,245.525940 246.021179,245.709808 
z"/>
<path fill="#639F96" opacity="1.000000" stroke="none" 
	d="
M143.013092,61.808189 
	C142.233795,61.951653 141.440369,61.937645 140.272736,61.785690 
	C140.698349,61.501434 141.498169,61.355129 142.608887,61.276703 
	C142.919800,61.344585 142.998993,61.650715 143.013092,61.808189 
z"/>
<path fill="#05756B" opacity="1.000000" stroke="none" 
	d="
M86.952370,62.060219 
	C86.588135,62.144138 86.136818,62.199986 85.357002,62.371010 
	C85.464027,62.035820 85.899559,61.585449 86.644844,61.047745 
	C86.954597,60.960411 86.992050,60.997169 86.980499,61.221004 
	C86.968956,61.444839 86.912453,61.855347 86.912453,61.855347 
	C86.912453,61.855347 86.865288,62.032150 86.952370,62.060219 
z"/>
<path fill="#ECF7F6" opacity="1.000000" stroke="none" 
	d="
M179.164612,219.286591 
	C179.385773,219.237137 179.585388,219.477783 179.823441,219.978210 
	C179.580307,220.076248 179.340698,219.855804 179.164612,219.286591 
z"/>
<path fill="#05756B" opacity="1.000000" stroke="none" 
	d="
M82.909164,64.177788 
	C83.000259,64.371078 82.877502,64.749336 82.473717,65.248978 
	C82.360229,65.034492 82.527771,64.698624 82.909164,64.177788 
z"/>
<path fill="#05756B" opacity="1.000000" stroke="none" 
	d="
M82.352531,65.341248 
	C82.515190,65.313965 82.526611,65.778816 82.372475,65.954041 
	C82.218338,66.129272 81.974289,65.719856 81.974289,65.719856 
	C81.974289,65.719856 82.189873,65.368523 82.352531,65.341248 
z"/>
<path fill="#05756B" opacity="1.000000" stroke="none" 
	d="
M83.946075,63.161613 
	C83.960052,63.322655 83.750778,63.630169 83.268326,64.010384 
	C83.237701,63.824753 83.480263,63.566418 83.946075,63.161613 
z"/>
<path fill="#F3F5EB" opacity="1.000000" stroke="none" 
	d="
M134.830627,92.744865 
	C134.513596,92.778160 134.447601,92.527313 134.661499,92.128250 
	C134.804779,92.183342 134.851532,92.343575 134.830627,92.744865 
z"/>
<path fill="#F3F5EB" opacity="1.000000" stroke="none" 
	d="
M134.821869,97.742477 
	C134.504593,97.770439 134.443298,97.520325 134.663330,97.127472 
	C134.761139,97.024712 134.894318,97.504364 134.821869,97.742477 
z"/>
<path fill="#83B5AF" opacity="1.000000" stroke="none" 
	d="
M178.056015,61.413219 
	C178.369003,61.177711 178.646744,61.226871 179.045105,61.523834 
	C178.996414,61.785862 178.812759,61.881321 178.319336,62.000797 
	C178.009567,62.024815 178.035126,61.616638 178.056015,61.413219 
z"/>
<path fill="#F3F5EB" opacity="1.000000" stroke="none" 
	d="
M134.802353,183.737473 
	C134.489273,183.769699 134.424820,183.526001 134.639008,183.138977 
	C134.735214,183.038452 134.868546,183.504379 134.802353,183.737473 
z"/>
<path fill="#ECF7F6" opacity="1.000000" stroke="none" 
	d="
M177.985382,217.353500 
	C178.173416,217.357635 178.425461,217.664230 178.783020,218.253479 
	C178.608841,218.242752 178.329117,217.949356 177.985382,217.353500 
z"/>
<path fill="#ECF7F6" opacity="1.000000" stroke="none" 
	d="
M226.843536,219.791779 
	C226.650406,219.842773 226.438782,219.620453 226.160538,219.155823 
	C226.372574,219.062424 226.616287,219.264084 226.843536,219.791779 
z"/>
<path fill="#ECF7F6" opacity="1.000000" stroke="none" 
	d="
M232.091583,225.617737 
	C231.916412,225.660614 231.638672,225.452240 231.225311,225.017761 
	C231.389465,224.983261 231.689224,225.174881 232.091583,225.617737 
z"/>
<path fill="#FDF0E2" opacity="1.000000" stroke="none" 
	d="
M183.339630,63.244110 
	C199.677948,63.005253 216.354630,63.004562 233.495117,63.012604 
	C232.711761,63.346405 231.465775,63.948952 230.217239,63.954227 
	C215.505219,64.016380 200.792786,63.996967 186.080536,63.963955 
	C185.279343,63.962158 184.478821,63.649979 183.339630,63.244110 
z"/>
<path fill="#FDF0E2" opacity="1.000000" stroke="none" 
	d="
M180.101471,63.092751 
	C180.164261,62.982132 180.331528,62.987251 180.749649,63.000401 
	C181.000504,63.008430 180.635696,63.277550 180.635696,63.277550 
	C180.635696,63.277550 180.205933,63.208488 180.101471,63.092751 
z"/>
<path fill="#83B5AF" opacity="1.000000" stroke="none" 
	d="
M181.011414,61.669308 
	C181.117599,61.403687 181.439484,61.301903 181.980255,61.349972 
	C181.875153,61.610935 181.551117,61.722042 181.011414,61.669308 
z"/>
<path fill="#639F96" opacity="1.000000" stroke="none" 
	d="
M136.760010,61.452042 
	C134.329773,61.737003 131.560028,61.825336 128.344971,61.781525 
	C130.739944,61.518063 133.580215,61.386738 136.760010,61.452042 
z"/>
<path fill="#639F96" opacity="1.000000" stroke="none" 
	d="
M87.220001,61.893860 
	C86.912453,61.855347 86.968956,61.444839 86.998314,61.240269 
	C87.311241,61.098640 87.580254,61.200157 87.965530,61.513077 
	C87.906731,61.768063 87.717133,61.850216 87.220001,61.893860 
z"/>
</svg>